<svg width="33" height="32" viewBox="0 0 33 32" fill="none" xmlns="http://www.w3.org/2000/svg">
<circle cx="16" cy="16" r="16" transform="matrix(-1 0 0 1 32.5 0)" fill="url(#paint0_linear_166_3520)"/>
<g clip-path="url(#clip0_166_3520)">
<path d="M12.457 16.3706C12.0664 15.98 12.0664 15.3456 12.457 14.955L18.457 8.95497C18.8477 8.56434 19.482 8.56434 19.8727 8.95497C20.2633 9.34559 20.2633 9.97997 19.8727 10.3706L14.5789 15.6643L19.8695 20.9581C20.2602 21.3487 20.2602 21.9831 19.8695 22.3737C19.4789 22.7643 18.8445 22.7643 18.4539 22.3737L12.4539 16.3737L12.457 16.3706Z" fill="white"/>
</g>
<defs>
<linearGradient id="paint0_linear_166_3520" x1="-1.76" y1="10.08" x2="34.72" y2="36.32" gradientUnits="userSpaceOnUse">
<stop stop-color="#EF06E1" stop-opacity="0.79"/>
<stop offset="0.464546" stop-color="#6252FB" stop-opacity="0.78"/>
<stop offset="1" stop-color="#01E2FE" stop-opacity="0.87"/>
</linearGradient>
<clipPath id="clip0_166_3520">
<rect width="13.3333" height="13.3333" fill="white" transform="matrix(0 -1 -1 0 23.166 22.6667)"/>
</clipPath>
</defs>
</svg>
