<svg width="1440" height="556" viewBox="0 0 1440 556" fill="none" xmlns="http://www.w3.org/2000/svg">
<path opacity="0.2" d="M1436.81 199.396V194.326C1436.81 190.997 1434.39 188.273 1431.42 188.273H1420.55V182.624H1418.9V188.273H1410.61C1407.64 188.273 1405.22 190.997 1405.22 194.326V199.396H1389.84C1386.88 199.396 1384.45 202.12 1384.45 205.449V217.934H1372.66V236.531H1358.16V317.511H1349.67V279.905H1347.79V236.531H1330.92V124.67C1331.33 124.591 1331.7 124.37 1331.96 124.047C1332.22 123.724 1332.36 123.321 1332.34 122.911V121.486C1332.34 120.492 1331.61 119.684 1330.73 119.684H1323.14V119.614C1323.14 118.052 1321.99 116.77 1320.6 116.77H1318.6C1317.2 116.77 1316.06 118.052 1316.06 119.614V119.684H1296V115.95H1284.68V119.684H1278.73C1277.85 119.684 1277.13 120.492 1277.13 121.486V122.911C1277.13 123.901 1277.85 124.732 1278.73 124.732H1278.9V166.045H1272.75V123.031H1260.28V19.3642H1253.86V10.7287L1246 17.5L1237.5 14L1230.5 10.7287H1228.5L1227 17.5L1217.68 8.49999L1209.5 5L1207.07 14L1189.5 5L1194.5 17.5L1183.5 19.3642L1178.5 5L1173.1 0V8.5L1167 12L1169.51 19.3642H1155.75V155.093H1106V314.863H1096.8V155.093H1085.14V140.287H1074.96C1074.96 140.214 1074.98 140.145 1074.98 140.072C1074.98 133.786 1066.32 128.687 1055.64 128.687C1044.96 128.687 1036.29 133.786 1036.29 140.072C1036.29 140.145 1036.29 140.214 1036.31 140.287H1030.12V155.093H1009.95V287.62H1003.4V347.435H999.154V287.62H962.25V190.877H953.081V163.116H938.932V129.186H938.812L938.516 112.669L906.191 129.186H906.311V190.88H901.729V370.974H891.645V90.3133H877.77V54.2561L828.709 90.3133H814.084V72.2774H760.792V90.3133H751.357V219.759H746.524V305.35H742.987V219.759H717.375V198.562C717.375 195.233 714.949 192.512 711.986 192.512H705.375V177.109C705.375 173.784 702.949 171.06 699.986 171.06H684.581C681.619 171.06 679.193 173.784 679.193 177.109V192.512H630.818C627.855 192.512 625.429 195.233 625.429 198.562V219.759H590.46V236.513H579.525V349.784H573.862V236.513H564.544V221.624H559.354V205.205H530.576V221.624H512.767V199.574H493.897V221.624H485.76V236.513H470.76V370.952H458.385V129.186H442.125V121.009H432.75V111.904H431.16V121.009H423.375V129.186H415.061V79.8276H392.363V30.4837H280.95V370.985H266.509V140.287H262.74V114.519L238.327 128.552V140.287H235.849V135.705H207.544V140.287H196.699V306.125H188.914V140.287H181.361V131.269H179.947V140.287H173.666V191.438H153.041V274.668H89.0737V370.97H56.0737V225.31H20.1525V218.215H0V555.5C0 555.5 437.823 466.5 719 466.5C1000.18 466.5 1440 555.5 1440 555.5V199.396H1436.81Z" fill="url(#paint0_linear_116_8348)"/>
<path d="M1206.36 44H1229.15V59.1H1206.36V44Z" fill="white"/>
<path d="M1170.37 44H1193.15V59.1H1170.37V44Z" fill="white"/>
<path d="M1206.36 72H1229.15V87.1H1206.36V72Z" fill="white"/>
<path d="M1170.37 72H1193.15V87.1H1170.37V72Z" fill="white"/>
<path d="M1206.36 100H1229.15V115.1H1206.36V100Z" fill="white"/>
<path d="M1170.37 100H1193.15V115.1H1170.37V100Z" fill="white"/>
<path d="M1170.37 128H1193.15V143.1H1170.37V128Z" fill="white"/>
<path d="M1206.36 128H1229.15V143.1H1206.36V128Z" fill="white"/>
<path d="M1170 155.34H1192.78V170.44H1170V155.34Z" fill="white"/>
<path d="M1206.58 157H1229.37V172.1H1206.58V157Z" fill="white"/>
<path d="M1170 183.16H1192.78V198.26H1170V183.16Z" fill="white"/>
<path d="M1170 210.99H1192.78V226.09H1170V210.99Z" fill="white"/>
<path d="M1206.58 238.81H1229.37V253.91H1206.58V238.81Z" fill="white"/>
<path d="M1170 238.81H1192.78V253.91H1170V238.81Z" fill="white"/>
<path d="M1206.58 266.63H1229.37V281.73H1206.58V266.63Z" fill="white"/>
<path d="M326.011 50H303.221V65.1H326.011V50Z" fill="white"/>
<path d="M362.001 50H339.221V65.1H362.001V50Z" fill="white"/>
<path d="M326.011 78H303.221V93.1H326.011V78Z" fill="white"/>
<path d="M362.001 78H339.221V93.1H362.001V78Z" fill="white"/>
<path d="M326.011 106H303.221V121.1H326.011V106Z" fill="white"/>
<path d="M362.001 106H339.221V121.1H362.001V106Z" fill="white"/>
<path d="M362.001 134H339.221V149.1H362.001V134Z" fill="white"/>
<path d="M326.011 134H303.221V149.1H326.011V134Z" fill="white"/>
<path d="M362.37 161.34H339.59V176.44H362.37V161.34Z" fill="white"/>
<path d="M325.79 163H303V178.1H325.79V163Z" fill="white"/>
<path d="M362.37 189.16H339.59V204.26H362.37V189.16Z" fill="white"/>
<path d="M362.37 216.99H339.59V232.09H362.37V216.99Z" fill="white"/>
<path d="M325.79 244.81H303V259.91H325.79V244.81Z" fill="white"/>
<path d="M362.37 244.81H339.59V259.91H362.37V244.81Z" fill="white"/>
<path d="M325.79 272.63H303V287.73H325.79V272.63Z" fill="white"/>
<path d="M880.79 168H858V183.1H880.79V168Z" fill="white"/>
<path d="M847.79 168H825V183.1H847.79V168Z" fill="white"/>
<path d="M879.79 191H857V206.1H879.79V191Z" fill="white"/>
<path d="M1046.79 176H1024V191.1H1046.79V176Z" fill="white"/>
<path d="M1084.79 178H1062V193.1H1084.79V178Z" fill="white"/>
<path d="M1084.79 196H1062V211.1H1084.79V196Z" fill="white"/>
<path d="M1047.79 201H1025V216.1H1047.79V201Z" fill="white"/>
<path d="M1084.79 230H1062V245.1H1084.79V230Z" fill="white"/>
<path d="M1323.79 131H1301V146.1H1323.79V131Z" fill="white"/>
<path d="M1439.79 215H1417V230.1H1439.79V215Z" fill="white"/>
<path d="M1412.78 215H1390V230.1H1412.78V215Z" fill="white"/>
<path d="M1323.79 162H1301V177.1H1323.79V162Z" fill="white"/>
<path d="M1323.78 193H1301V208.1H1323.78V193Z" fill="white"/>
<path d="M1323.78 219H1301V234.1H1323.78V219Z" fill="white"/>
<defs>
<linearGradient id="paint0_linear_116_8348" x1="735" y1="-285.5" x2="851.213" y2="447.476" gradientUnits="userSpaceOnUse">
<stop stop-color="#E10DE4"/>
<stop offset="1" stop-color="#02E1FF" stop-opacity="0"/>
</linearGradient>
</defs>
</svg>
