<svg width="27" height="27" viewBox="0 0 27 27" fill="none" xmlns="http://www.w3.org/2000/svg">
<g id="la:facebook">
<path id="Vector" d="M14.032 2.71619C7.79274 2.71619 2.71533 7.7936 2.71533 14.0329C2.71533 20.2721 7.79274 25.3495 14.032 25.3495C20.2713 25.3495 25.3487 20.2721 25.3487 14.0329C25.3487 7.7936 20.2713 2.71619 14.032 2.71619ZM14.032 4.6023C19.2518 4.6023 23.4626 8.81304 23.4626 14.0329C23.4648 16.2905 22.6553 18.4737 21.1816 20.184C19.708 21.8944 17.6684 23.0178 15.4353 23.3493V16.7828H18.1211L18.5426 14.0545H15.4353V12.5645C15.4353 11.4328 15.8078 10.4266 16.8668 10.4266H18.569V8.04634C18.2701 8.00579 17.6373 7.91808 16.4415 7.91808C13.9443 7.91808 12.4807 9.23647 12.4807 12.241V14.0545H9.91368V16.7828H12.4807V23.3257C10.2784 22.9633 8.27675 21.8296 6.83336 20.1272C5.38998 18.4249 4.59889 16.2648 4.60144 14.0329C4.60144 8.81304 8.81219 4.6023 14.032 4.6023Z" fill="url(#paint0_linear_153_3467)"/>
</g>
<defs>
<linearGradient id="paint0_linear_153_3467" x1="-6.76238" y1="-32.5198" x2="40.5517" y2="-26.0379" gradientUnits="userSpaceOnUse">
<stop stop-color="#FE00DD"/>
<stop offset="1" stop-color="#00CCE3"/>
</linearGradient>
</defs>
</svg>
