<svg width="208" height="60" viewBox="0 0 208 60" fill="none" xmlns="http://www.w3.org/2000/svg">
<path fill-rule="evenodd" clip-rule="evenodd" d="M25.7239 0.10736C23.4364 0.171585 21.1342 0.677125 18.9456 1.51113C10.4697 5.25268 4.57539 13.4166 1.90885 23.2118C1.45864 25.0504 1.09345 26.8909 0.897402 28.7901C0.897402 28.8516 0.756875 30.7215 1.0093 30.2168C1.26173 29.7728 1.37363 29.1186 1.51416 28.6131C2.80493 24.0127 4.37848 19.8262 6.79173 15.8488C12.5742 6.85279 21.8637 1.06523 31.6858 4.27188C33.511 4.9233 35.1383 5.87474 36.7656 7.00235C37.0736 7.23998 39.3472 9.14011 38.8423 7.41797C38.4216 6.05457 37.3555 4.89394 36.4282 3.97369C33.3071 1.11661 29.5372 1.30087e-05 25.7239 0.10736ZM97.4126 9.108C96.0941 9.108 95.0844 9.5851 94.3817 10.565C93.6513 11.5137 93.3156 12.9395 93.3156 14.8102V28.347C91.6874 26.4478 90.0046 25.0807 88.2931 24.1586C87.115 23.5571 85.8543 23.1567 84.5579 22.9723C83.7028 22.8507 82.8408 22.7915 81.9781 22.7952C77.6842 22.7952 74.1753 24.3962 71.5383 27.6011C68.8986 30.8077 67.5801 35.2621 67.5801 40.991C67.5801 43.693 67.9184 46.2143 68.5629 48.5301C69.2378 50.8458 70.2189 52.8634 71.5097 54.5855C72.7511 56.2504 74.3213 57.6085 76.1106 58.5647C77.8793 59.4822 79.7869 59.9593 81.8644 59.9593C82.7917 59.9593 83.6895 59.8676 84.5579 59.6905C85.1101 59.5984 85.6545 59.4601 86.1861 59.2767C87.5005 58.8027 88.7401 58.1222 89.8632 57.2582C91.0152 56.3664 92.1368 55.2094 93.3156 53.8148V54.703C93.3156 56.3976 93.7095 57.6738 94.4659 58.5932C95.2232 59.4831 96.2355 59.9593 97.4126 59.9593C98.5629 59.9593 99.5734 59.5143 100.332 58.6528C101.09 57.7619 101.453 56.4572 101.453 54.703V14.3331C101.453 12.6422 101.117 11.3357 100.415 10.4448C99.6871 9.55482 98.6756 9.108 97.4126 9.108ZM203.328 9.108C202.01 9.108 200.999 9.5851 200.298 10.565C199.596 11.5137 199.231 12.9395 199.231 14.8102V28.347C197.604 26.4478 195.919 25.0807 194.209 24.1586C193.142 23.5943 191.88 23.1815 190.475 22.9723C189.619 22.8506 188.757 22.7914 187.893 22.7952C183.601 22.7952 180.121 24.3962 177.453 27.6011C174.816 30.8077 173.496 35.2621 173.496 40.991C173.496 43.693 173.832 46.2143 174.506 48.5301C175.179 50.8458 176.133 52.8634 177.425 54.5855C178.666 56.2511 180.238 57.6092 182.028 58.5647C183.795 59.4822 185.705 59.9593 187.782 59.9593C188.734 59.9593 189.633 59.8676 190.475 59.6905C191.037 59.6024 191.568 59.4547 192.102 59.2767C193.416 58.8028 194.655 58.1224 195.778 57.2582C196.93 56.3664 198.081 55.2094 199.231 53.8148V54.703C199.231 56.3976 199.623 57.6738 200.382 58.5932C201.168 59.4831 202.15 59.9593 203.328 59.9593C204.536 59.9593 205.516 59.5143 206.276 58.6528C207.034 57.7619 207.426 56.4572 207.426 54.703V14.3331C207.426 12.6422 207.062 11.3357 206.361 10.4448C205.631 9.55482 204.65 9.108 203.328 9.108ZM23.5119 11.5807C22.3255 11.5478 21.1504 11.8315 20.095 12.4055C16.587 14.2744 15.1826 18.816 16.9791 22.5264C18.7469 26.2377 23.0391 27.7231 26.5479 25.8239C30.0559 23.9531 31.4594 19.4115 29.6638 15.703C29.087 14.4914 28.2102 13.4681 27.1267 12.7421C26.0433 12.0161 24.794 11.6147 23.5119 11.5807ZM121.296 22.675C118.798 22.7053 116.525 23.1503 114.448 23.9797C112.315 24.8724 110.52 26.1496 109.061 27.7827C107.6 29.4434 106.477 31.4344 105.719 33.7483C104.961 36.065 104.569 38.5881 104.569 41.2883C104.569 47.0474 106.141 51.5578 109.227 54.9113C112.146 58.0895 116.161 59.7501 121.296 59.9272C121.604 59.9584 121.885 59.9593 122.194 59.9593C124.636 59.9593 126.769 59.6318 128.65 58.9501C130.529 58.2656 132.072 57.4362 133.307 56.4251C134.571 55.3883 135.469 54.3185 136.087 53.2194C136.705 52.1221 137.012 51.1431 137.012 50.3421C137.012 49.4219 136.732 48.6796 136.199 48.1732C135.639 47.6704 134.907 47.4015 134.037 47.4015C133.196 47.4015 132.58 47.6107 132.129 47.9961C131.266 48.8654 130.387 49.7167 129.492 50.5495C128.785 51.1779 128.044 51.7624 127.274 52.3001C126.458 52.834 125.646 53.2515 124.775 53.4882C123.934 53.7543 122.98 53.8736 121.942 53.8736C121.716 53.8736 121.492 53.8736 121.296 53.8433C120.006 53.7543 118.798 53.3689 117.705 52.6551C116.441 51.8551 115.402 50.6687 114.646 49.1246C113.859 47.5217 113.466 45.6812 113.438 43.604H130.389C132.635 43.604 134.402 43.248 135.665 42.5948C136.901 41.8828 137.518 40.3974 137.518 38.1119C137.518 35.6181 136.928 33.1849 135.721 30.7811C134.514 28.4048 132.691 26.4478 130.278 24.9311C127.863 23.4191 124.943 22.675 121.577 22.675H121.296ZM155.957 22.675C153.459 22.7053 151.157 23.1503 149.109 23.9797C146.975 24.8724 145.18 26.1496 143.69 27.7827C142.259 29.4434 141.138 31.4344 140.382 33.7483C139.623 36.065 139.23 38.5881 139.23 41.2883C139.23 47.0474 140.773 51.5578 143.86 54.9113C146.778 58.0895 150.821 59.7501 155.957 59.9272C156.239 59.9584 156.544 59.9593 156.853 59.9593C159.268 59.9593 161.429 59.6318 163.309 58.9501C165.188 58.2656 166.732 57.4362 167.967 56.4251C169.204 55.3883 170.128 54.3185 170.746 53.2194C171.363 52.1221 171.673 51.1431 171.673 50.3421C171.673 49.4219 171.391 48.6796 170.829 48.1732C170.297 47.6704 169.568 47.4015 168.669 47.4015C167.854 47.4015 167.237 47.6107 166.788 47.9961C165.693 49.065 164.826 49.9256 164.152 50.5495C163.435 51.1781 162.685 51.7626 161.905 52.3001C161.122 52.834 160.278 53.2515 159.437 53.4882C158.565 53.7543 157.641 53.8736 156.602 53.8736C156.377 53.8736 156.153 53.8736 155.957 53.8433C154.665 53.7543 153.458 53.3689 152.363 52.6551C151.072 51.8551 150.062 50.6687 149.277 49.1246C148.518 47.5217 148.125 45.6812 148.097 43.604H165.019C167.294 43.604 169.061 43.248 170.297 42.5948C171.561 41.8828 172.176 40.3974 172.176 38.1119C172.176 35.6181 171.561 33.1849 170.353 30.7811C169.146 28.4048 167.349 26.4478 164.907 24.9311C162.493 23.4191 159.605 22.675 156.208 22.675H155.957ZM38.085 22.7365C36.822 22.7365 35.8383 23.1806 35.1374 24.0412C34.4079 24.8724 34.0427 26.1789 34.0427 27.9295V54.3773C34.0427 56.1572 34.4357 57.5536 35.2485 58.5042C36.0639 59.4822 37.0727 59.9593 38.3366 59.9593C39.6274 59.9593 40.6648 59.4822 41.4802 58.5647C42.2939 57.6142 42.7155 56.2462 42.7155 54.3773V42.9498C42.7155 39.1789 42.9115 36.6567 43.3322 35.2906C43.9212 33.5703 44.8772 32.2353 46.1393 31.2554C47.4032 30.3049 48.8059 29.8003 50.3499 29.8003C52.705 29.8003 54.3055 30.6022 55.0923 32.2032C55.8773 33.8079 56.272 36.1209 56.272 39.1505V54.3773C56.272 56.1572 56.6632 57.5536 57.4778 58.5042C58.2906 59.4822 59.3298 59.9593 60.6205 59.9593C61.8827 59.9593 62.921 59.4822 63.7069 58.5326C64.4937 57.6142 64.9136 56.2169 64.9136 54.3773V37.3696C64.9136 35.3521 64.8303 33.6877 64.6611 32.4115C64.4928 31.105 64.1294 29.8902 63.5395 28.7608C62.6417 26.8322 61.3223 25.3477 59.5258 24.3082C57.7293 23.2686 55.6821 22.7365 53.4077 22.7365C51.0499 22.7365 48.9733 23.2393 47.149 24.2201C45.3534 25.2284 43.6983 26.7726 42.1525 28.9085V27.7827C42.1525 26.7138 41.9851 25.7936 41.6208 25.0211C41.2564 24.2504 40.7507 23.6852 40.1339 23.2989C39.5146 22.9126 38.8414 22.7365 38.085 22.7365ZM121.269 29.058H121.296C123.539 29.058 125.364 29.8297 126.739 31.3738C128.145 32.9161 128.929 35.2621 129.153 38.4092H113.437C113.747 35.3227 114.588 32.9767 115.963 31.4041C117.338 29.8306 119.106 29.058 121.268 29.058H121.269ZM155.928 29.058H155.957C158.202 29.058 160.023 29.8297 161.398 31.3738C162.775 32.9161 163.589 35.2621 163.786 38.4092H148.098C148.378 35.3227 149.22 32.9767 150.624 31.4041C152 29.8306 153.767 29.058 155.928 29.058ZM84.4486 29.592H84.5579C86.0455 29.592 87.4213 30.0673 88.6566 30.9885C89.9473 31.9078 90.9596 33.2437 91.7161 34.9952C92.4473 36.7467 92.8394 38.8541 92.8394 41.2892C92.8394 43.9004 92.4473 46.0666 91.7161 47.7878C90.9596 49.51 89.9473 50.7853 88.6852 51.6156C87.4491 52.4469 86.0455 52.8652 84.5579 52.8652H84.5318C83.0164 52.8652 81.6397 52.4193 80.3767 51.5587C79.0877 50.6687 78.104 49.3622 77.3754 47.641C76.645 45.8895 76.2806 43.782 76.2806 41.2883C76.2806 38.9431 76.6189 36.865 77.2921 35.1135C77.993 33.3336 78.9472 31.9665 80.2093 31.0169C81.4446 30.0361 82.8759 29.592 84.4486 29.592ZM190.39 29.592H190.475C191.963 29.592 193.338 30.0673 194.601 30.9885C195.864 31.9078 196.875 33.2437 197.632 34.9952C198.39 36.7467 198.755 38.8541 198.755 41.2892C198.755 43.9004 198.39 46.0666 197.632 47.7878C196.875 49.51 195.862 50.7853 194.628 51.6156C193.385 52.4434 191.944 52.877 190.475 52.8652H190.448C188.934 52.8652 187.556 52.4193 186.293 51.5587C185.032 50.6687 184.022 49.3622 183.292 47.641C182.562 45.8895 182.197 43.782 182.197 41.2883C182.197 38.9431 182.531 36.8659 183.234 35.1135C183.908 33.3336 184.891 31.9665 186.126 31.0169C187.391 30.0361 188.792 29.592 190.39 29.592ZM28.3175 29.8902C26.0708 31.3123 23.4338 32.1151 20.6276 32.1151C20.0394 32.1151 19.4773 32.0867 18.8875 32.0261V53.8736C18.8875 55.8921 19.3368 57.4059 20.2077 58.4161C21.1055 59.4547 22.2011 59.9593 23.576 59.9593C24.9778 59.9593 26.1307 59.4547 26.9981 58.4454C27.8699 57.4362 28.3175 55.9223 28.3175 53.8736V29.8902Z" fill="white"/>
</svg>
