<svg width="28" height="27" viewBox="0 0 28 27" fill="none" xmlns="http://www.w3.org/2000/svg">
<g id="teenyicons:instagram-outline">
<path id="Vector" d="M19.7581 8.08346H21.2454M10.0904 3.62146H19.0144C20.5923 3.62146 22.1055 4.24826 23.2213 5.36398C24.337 6.4797 24.9638 7.99293 24.9638 9.57079V18.4948C24.9638 20.0727 24.337 21.5859 23.2213 22.7016C22.1055 23.8173 20.5923 24.4441 19.0144 24.4441H10.0904C8.51259 24.4441 6.99935 23.8173 5.88363 22.7016C4.76792 21.5859 4.14111 20.0727 4.14111 18.4948V9.57079C4.14111 7.99293 4.76792 6.4797 5.88363 5.36398C6.99935 4.24826 8.51259 3.62146 10.0904 3.62146ZM14.5524 18.4948C13.3691 18.4948 12.2341 18.0247 11.3973 17.1879C10.5605 16.3511 10.0904 15.2162 10.0904 14.0328C10.0904 12.8494 10.5605 11.7145 11.3973 10.8777C12.2341 10.0409 13.3691 9.57079 14.5524 9.57079C15.7358 9.57079 16.8708 10.0409 17.7076 10.8777C18.5443 11.7145 19.0144 12.8494 19.0144 14.0328C19.0144 15.2162 18.5443 16.3511 17.7076 17.1879C16.8708 18.0247 15.7358 18.4948 14.5524 18.4948Z" stroke="url(#paint0_linear_153_3471)" stroke-width="1.81067"/>
</g>
<defs>
<linearGradient id="paint0_linear_153_3471" x1="-4.57838" y1="-28.7956" x2="38.9506" y2="-22.8323" gradientUnits="userSpaceOnUse">
<stop stop-color="#FE00DD"/>
<stop offset="1" stop-color="#00CCE3"/>
</linearGradient>
</defs>
</svg>
