<svg width="255" height="79" viewBox="0 0 255 79" fill="none" xmlns="http://www.w3.org/2000/svg">
<g clip-path="url(#clip0_71_13698)">
<path d="M126.338 78.739V78.6117C126.465 78.4525 126.688 78.357 126.879 78.3889C127.802 78.357 128.694 78.357 129.617 78.3889C129.808 78.3889 130.031 78.4525 130.158 78.6117V78.739H126.338Z" fill="white"/>
<path d="M130.158 78.6117C128.885 78.5799 127.612 78.5799 126.338 78.6117C124.588 78.5162 122.837 78.4525 121.086 78.3252C116.438 77.975 111.822 77.2747 107.302 76.2242C91.6716 72.5951 77.9513 65.3053 65.9819 54.7047C64.8677 53.7178 63.8172 52.6992 62.7349 51.6805C62.4802 51.4576 62.2574 51.1393 62.13 50.821C61.939 50.3753 62.0345 49.8978 62.3529 49.5476C62.6712 49.1975 63.1805 49.0701 63.6262 49.2611C63.9127 49.3885 64.1992 49.5158 64.4539 49.675C75.8821 56.742 88.3609 61.8991 101.445 64.9551C105.838 65.9738 110.262 66.7696 114.719 67.3426C121.118 68.1384 127.58 68.4249 134.01 68.2021C137.48 68.1066 140.918 67.7883 144.356 67.3426C152.378 66.3239 160.305 64.5094 167.977 61.9627C172.02 60.6257 175.967 59.0977 179.819 57.315C180.392 56.9967 181.092 56.9012 181.729 57.0603C182.779 57.315 183.416 58.3974 183.161 59.4479C183.13 59.5752 183.066 59.7344 183.002 59.8617C182.748 60.3392 182.397 60.7531 181.952 61.0714C178.291 63.9364 174.343 66.4513 170.173 68.5523C162.31 72.5315 153.906 75.3647 145.248 76.9882C140.25 77.8795 135.22 78.4207 130.158 78.6117ZM83.0129 14.085C83.8087 13.6075 84.6364 13.0981 85.4959 12.6525C87.7242 11.5065 90.2073 10.9335 92.7221 11.0608C94.5366 11.1563 96.192 11.6656 97.4653 13.0026C98.675 14.2442 99.1207 15.7722 99.248 17.4275C99.2798 17.7777 99.2798 18.1279 99.2798 18.5099V34.9997C99.2798 36.4322 99.0888 36.6232 97.6563 36.6232H93.7726C93.518 36.6232 93.2633 36.6232 93.0086 36.5913C92.6266 36.5595 92.3083 36.2412 92.2446 35.8592C92.1809 35.509 92.181 35.1588 92.181 34.8087V20.0697C92.2128 19.4649 92.1491 18.8919 91.9899 18.3189C91.7353 17.332 90.8439 16.6317 89.8253 16.568C87.9471 16.4407 86.0689 16.8227 84.3499 17.6185C84.0952 17.6822 83.936 17.9369 83.9679 18.1915V34.936C83.9679 35.2543 83.9679 35.5408 83.9042 35.8592C83.9042 36.3048 83.554 36.6232 83.1084 36.6232C82.6309 36.655 82.1534 36.655 81.644 36.655H78.2697C77.0918 36.655 76.8371 36.3685 76.8371 35.1907V20.1334C76.8371 19.5922 76.8053 19.0192 76.678 18.478C76.4551 17.3957 75.532 16.6317 74.4496 16.568C72.5396 16.4407 70.5978 16.8227 68.8787 17.6504C68.6241 17.714 68.4649 18.0005 68.5286 18.2552V35.2225C68.5286 36.4003 68.2739 36.655 67.0961 36.655H62.8304C61.7162 36.655 61.4297 36.3367 61.4297 35.2543V13.1618C61.4297 12.9071 61.4615 12.6525 61.5252 12.3978C61.6525 12.0158 62.0345 11.793 62.4165 11.793H66.3957C66.9687 11.793 67.3189 12.1431 67.5099 12.6843C67.6691 13.13 67.7646 13.5438 67.9237 14.0213C68.2421 14.0213 68.4331 13.7985 68.6559 13.6712C70.4068 12.5888 72.2531 11.6656 74.3223 11.2836C75.914 10.9653 77.5057 10.9653 79.0973 11.2836C80.5935 11.602 81.9305 12.4933 82.79 13.7667C82.8537 13.8622 82.9174 13.9258 82.981 13.9895C82.9492 14.0213 82.981 14.0213 83.0129 14.085Z" fill="white"/>
<path d="M149.003 29.9381C149.194 29.3014 149.385 28.6966 149.576 28.0599C151.041 23.1257 152.505 18.2233 153.97 13.2891L154.161 12.7161C154.32 12.1431 154.861 11.7929 155.434 11.7929H160.273C161.482 11.7929 161.737 12.1431 161.323 13.2891L159.413 18.3507C157.28 23.8897 155.147 29.4606 153.014 34.9996C152.951 35.1906 152.855 35.3816 152.792 35.5726C152.569 36.2411 151.9 36.6868 151.2 36.6231C149.799 36.5913 148.399 36.5913 146.998 36.6231C146.011 36.655 145.438 36.2093 145.088 35.318C144.292 33.2169 143.464 31.0841 142.669 28.9831C140.759 23.9852 138.817 18.9873 136.907 13.9576C136.716 13.5756 136.588 13.1299 136.493 12.7161C136.397 12.0794 136.62 11.7611 137.257 11.7611C139.071 11.7293 140.886 11.7611 142.669 11.7611C143.433 11.7611 143.783 12.2704 143.974 12.9389C144.324 14.1486 144.674 15.3901 145.056 16.5998C146.361 21.0247 147.635 25.4814 148.94 29.9062C148.908 29.9381 148.94 29.9381 149.003 29.9381Z" fill="white"/>
<path d="M35.962 15.2946C36.1848 15.2309 36.3758 15.1036 36.5032 14.9126C37.0762 14.3396 37.681 13.7984 38.3177 13.289C39.973 12.0157 42.0422 11.379 44.1114 11.5382C44.9391 11.57 45.2256 11.8247 45.2893 12.6205C45.3529 13.7029 45.3211 14.8171 45.3211 15.8994C45.3529 16.3451 45.3211 16.7589 45.2574 17.2046C45.1301 17.7776 44.9072 18.0004 44.3342 18.0641C43.8886 18.0959 43.4747 18.0641 43.0291 18.0323C40.8962 17.8412 38.827 18.2551 36.8215 18.9236C36.3758 19.0828 36.3758 19.4011 36.3758 19.7513V35.0314C36.3758 35.3179 36.3758 35.5726 36.344 35.8591C36.3122 36.2729 35.9938 36.5912 35.58 36.5912C35.3572 36.6231 35.1025 36.6231 34.8797 36.6231H30.7413C30.5185 36.6231 30.2638 36.6231 30.041 36.5912C29.6271 36.5594 29.3088 36.2092 29.277 35.7954C29.2451 35.5407 29.2451 35.2861 29.2451 35.0314V13.3845C29.2451 11.9202 29.4043 11.761 30.8686 11.761H33.9247C34.7523 11.761 35.1343 12.0475 35.3572 12.8434C35.58 13.6392 35.771 14.4351 35.962 15.2946ZM184.88 47.5738C186.981 47.6375 189.05 47.7648 191.087 48.306C191.66 48.4652 192.201 48.6562 192.742 48.9109C193.475 49.1973 193.952 49.8977 194.048 50.6617C194.175 51.553 194.207 52.4762 194.143 53.3994C193.729 58.8429 192.042 64.0955 189.241 68.775C188.222 70.4622 186.981 71.9902 185.548 73.3272C185.262 73.6137 184.911 73.8366 184.529 73.9639C183.925 74.1231 183.543 73.8047 183.511 73.1999C183.543 72.8815 183.606 72.5632 183.734 72.2449C184.848 69.2525 185.93 66.292 186.79 63.2041C187.299 61.517 187.649 59.7979 187.872 58.0471C187.936 57.4104 187.967 56.7737 187.904 56.1371C187.872 55.0547 187.172 54.1316 186.121 53.8132C185.134 53.4949 184.116 53.3039 183.065 53.2402C180.136 53.1129 177.208 53.2402 174.311 53.6222L170.459 54.0997C170.045 54.1316 169.663 54.0997 169.44 53.7177C169.217 53.3357 169.313 52.9537 169.536 52.5717C169.79 52.2215 170.109 51.9032 170.491 51.6804C172.847 49.9932 175.489 48.9745 178.29 48.306C180.455 47.8603 182.651 47.6375 184.88 47.5738Z" fill="white"/>
<path d="M171.542 24.2081V35.6682C171.478 36.3048 171.192 36.5913 170.555 36.6232C168.836 36.655 167.149 36.655 165.43 36.6232C164.793 36.6232 164.507 36.3048 164.443 35.7C164.411 35.509 164.411 35.2862 164.411 35.0952V13.0663C164.443 12.0795 164.698 11.793 165.684 11.793H170.269C171.255 11.793 171.542 12.0795 171.542 13.0663V24.2081Z" fill="white"/>
<path d="M48.3777 24.1444V12.8435C48.4095 12.0795 48.696 11.793 49.46 11.7612C51.1154 11.7293 52.7707 11.7293 54.4261 11.7612C55.1582 11.7612 55.3811 11.984 55.4447 12.7162C55.4766 13.0027 55.4766 13.2574 55.4766 13.5439V34.745C55.4766 35.0952 55.4447 35.4454 55.4129 35.7955C55.3811 36.2094 55.0627 36.4959 54.6489 36.5277C54.4579 36.5595 54.2987 36.5596 54.1077 36.5596H49.6829C49.5237 36.5596 49.3964 36.5595 49.2372 36.5277C48.7915 36.4959 48.4095 36.1457 48.3777 35.7C48.3459 35.4454 48.3459 35.1907 48.3459 34.936C48.3777 31.4025 48.3777 27.7735 48.3777 24.1444ZM52.0704 0.364742C52.5797 0.332908 53.0891 0.428409 53.5666 0.587577C55.2856 1.16058 56.1769 2.65676 56.0178 4.59861C55.8904 6.25396 54.6489 7.59097 52.9936 7.84564C52.2932 7.97297 51.561 7.97297 50.8607 7.84564C49.0462 7.49547 47.7092 6.15846 47.8365 3.86644C48.0275 1.60625 49.5237 0.364742 52.0704 0.364742Z" fill="white"/>
<path d="M168.009 0.364735C168.645 0.301068 169.282 0.428403 169.887 0.683071C171.128 1.16058 171.988 2.30659 172.051 3.6436C172.306 6.54045 170.364 8.0048 167.786 7.94113C167.436 7.94113 167.085 7.87747 166.735 7.8138C164.762 7.3363 163.743 5.80828 163.934 3.61176C164.093 1.86091 165.462 0.555737 167.34 0.396569C167.563 0.364735 167.786 0.332902 168.009 0.364735Z" fill="white"/>
<path d="M24.5345 21.534C24.4072 19.8786 23.9615 18.2551 23.293 16.759C21.9878 14.0213 19.9823 12.0157 16.9263 11.3154C13.4246 10.5514 10.2731 11.3154 7.40806 13.4483C7.21706 13.6393 6.99422 13.7984 6.73955 13.9258C6.67589 13.8939 6.61222 13.8621 6.61222 13.8303C6.51672 13.5119 6.45305 13.1936 6.35755 12.8753C6.10288 12.0794 5.78454 11.7929 4.92504 11.7929C3.97003 11.7929 2.98319 11.8247 2.02818 11.7929C1.29601 11.7611 0.627502 11.8566 0.118164 12.4296C0.118164 23.5713 0.118164 34.7449 0.149998 45.8549C0.563834 46.5234 1.20051 46.6507 1.93268 46.6189C3.07869 46.587 4.2247 46.6189 5.37071 46.6189C7.37622 46.6189 7.37622 46.6189 7.37622 44.6452V35.5726C7.37622 35.3498 7.28072 35.0951 7.50356 34.9041C9.09524 36.1456 11.0371 36.9096 13.0426 37.1006C15.844 37.3871 18.3906 36.6868 20.5235 34.7768C22.0833 33.3443 23.2294 31.4979 23.8342 29.4606C24.6937 26.8502 24.7574 24.208 24.5345 21.534ZM16.9263 28.1236C16.7035 29.1104 16.1941 30.0017 15.462 30.6702C14.6343 31.3706 13.6156 31.7844 12.5333 31.7844C10.9098 31.8799 9.31807 31.5297 7.88556 30.7657C7.53539 30.6066 7.31256 30.2564 7.34439 29.8744V24.1125C7.34439 22.2025 7.37623 20.2925 7.34439 18.3825C7.31256 17.9368 7.56723 17.5548 7.98106 17.3956C9.73191 16.568 11.5464 16.1859 13.4564 16.568C14.7935 16.759 15.9395 17.6185 16.4806 18.86C16.9581 19.8786 17.2446 20.9928 17.3083 22.107C17.4993 24.1444 17.4993 26.1817 16.9263 28.1236Z" fill="white"/>
<path d="M254.819 26.5001C254.819 26.4682 254.819 26.4682 254.819 26.5001V26.5001ZM254.85 22.2344V22.3617C254.723 22.2344 254.659 22.0434 254.723 21.8842V21.6295C254.723 21.6295 254.723 21.5977 254.755 21.5977H254.723V21.2794H254.787C254.787 21.2475 254.755 21.2475 254.755 21.2157C254.691 20.6109 254.564 20.006 254.405 19.433C253.227 15.231 250.585 12.4615 246.287 11.3791C244.282 10.9016 242.244 10.8379 240.207 11.1563C235.909 11.793 232.822 14.085 231.325 18.1597C229.861 22.0434 229.893 26.3091 231.357 30.1928C232.631 33.7263 235.177 35.9547 238.838 36.8778C240.78 37.3553 242.817 37.4827 244.823 37.1962C251.508 36.4003 254.277 31.3388 254.723 26.9457H254.691V26.5001C254.659 26.3091 254.628 26.1499 254.819 26.0226V26.0862C254.819 26.0544 254.85 25.9907 254.882 25.9589V22.298C254.882 22.2662 254.85 22.2662 254.85 22.2344ZM247.21 28.2828C247.019 28.9513 246.733 29.5561 246.319 30.1291C245.619 31.1159 244.504 31.7526 243.295 31.8481C242.69 31.9118 242.085 31.9118 241.48 31.7845C240.143 31.5298 239.029 30.6384 238.488 29.3969C238.01 28.4101 237.724 27.3278 237.628 26.2454C237.469 24.3672 237.437 22.489 237.883 20.6427C238.042 19.9105 238.361 19.1784 238.743 18.5417C239.443 17.3957 240.653 16.6635 241.99 16.568C242.594 16.5043 243.199 16.5043 243.804 16.6317C245.077 16.8863 246.128 17.714 246.701 18.8918C247.242 20.006 247.561 21.2475 247.624 22.489C247.656 23.062 247.688 23.6351 247.656 24.2081C247.751 25.6087 247.592 26.9776 247.21 28.2828ZM199.046 0.587524H194.621C193.412 0.587524 193.189 0.81036 193.189 2.02004V12.3341C193.189 12.557 193.284 12.7798 193.125 13.0026C192.839 12.9708 192.679 12.7798 192.457 12.6525C189.146 10.7106 185.676 10.3604 182.174 11.984C179.723 13.13 178.195 15.1991 177.208 17.6503C176.253 20.006 176.03 22.489 176.094 25.0039C176.094 27.3596 176.635 29.6834 177.686 31.7845C178.895 34.1083 180.646 35.891 183.193 36.655C186.663 37.7373 189.91 37.1962 192.87 34.9996C193.093 34.8723 193.221 34.6495 193.507 34.5858C193.666 34.936 193.794 35.318 193.857 35.7C193.985 36.2093 194.43 36.5595 194.971 36.5595H195.735C196.881 36.5595 197.996 36.5913 199.11 36.5595C200.001 36.5595 200.256 36.273 200.288 35.3498V1.7972C200.256 0.81036 200.001 0.587524 199.046 0.587524ZM193.221 24.0171V29.8108C193.284 30.1928 193.061 30.5429 192.711 30.7021C191.183 31.5616 189.432 31.9118 187.713 31.6571C186.249 31.498 184.976 30.6066 184.307 29.3014C183.798 28.2828 183.511 27.2004 183.416 26.0862C183.161 24.0807 183.32 22.0434 183.798 20.1015C183.957 19.5604 184.148 19.051 184.434 18.5417C185.103 17.3002 186.376 16.5043 187.777 16.4088C189.464 16.2497 191.151 16.568 192.679 17.2683C193.061 17.3957 193.284 17.7777 193.252 18.1915C193.189 20.1652 193.221 22.0752 193.221 24.0171Z" fill="white"/>
<path d="M110.899 26.2136C113.286 26.6592 115.738 26.6911 118.125 26.3091C119.526 26.1181 120.863 25.7042 122.104 25.0357C123.537 24.208 124.587 23.062 125.033 21.4704C126.147 17.4593 124.428 13.4165 120.258 11.9203C118.221 11.2518 116.056 11.0289 113.923 11.3154C108.893 11.8884 105.615 14.658 104.118 19.4648C103.068 22.7437 103.195 26.0862 104.055 29.3969C105.169 33.6308 107.97 36.1456 112.204 37.037C114.623 37.5782 117.075 37.4827 119.494 37.1007C120.767 36.8778 122.041 36.5595 123.25 36.082C123.983 35.7955 124.365 35.3498 124.333 34.5221C124.301 33.7581 124.333 32.9623 124.333 32.1664C124.333 31.2114 123.951 30.9249 123.028 31.1478C122.104 31.3706 121.213 31.5616 120.29 31.7526C118.316 32.1664 116.279 32.1664 114.305 31.8163C111.599 31.2751 109.848 28.9513 110.008 26.0862C110.294 26.1181 110.612 26.1499 110.899 26.2136ZM110.103 21.343C110.199 20.579 110.421 19.8468 110.708 19.1465C111.663 16.8227 113.668 16.0268 115.706 16.1541C116.279 16.186 116.852 16.3133 117.393 16.5361C118.221 16.8863 118.762 17.6503 118.857 18.5417C118.953 19.0828 118.921 19.6558 118.762 20.197C118.38 21.343 117.457 21.8205 116.343 22.0434C115.674 22.2025 114.974 22.2662 114.273 22.2025C113.032 22.2025 111.758 22.107 110.517 21.916C110.039 21.8524 110.039 21.8524 110.103 21.343Z" fill="white"/>
<path d="M218.273 26.5319C220.119 26.4045 221.966 26.0544 223.621 25.163C225.308 24.3354 226.486 22.7755 226.836 20.9292C227.059 19.7831 227.059 18.5735 226.805 17.4275C226.136 14.5624 224.322 12.7798 221.584 11.8566C220.056 11.3791 218.432 11.1881 216.841 11.2517C211.493 11.3791 207.418 14.0849 205.763 19.433C204.648 22.9665 204.808 26.5637 205.89 30.0972C207.004 33.7263 209.551 35.9228 213.18 36.9096C214.74 37.2916 216.363 37.4508 217.955 37.3871C220.279 37.3553 222.603 36.9096 224.799 36.082C225.722 35.7318 225.945 35.4134 225.945 34.4266V32.1346C225.913 31.2114 225.531 30.8931 224.608 31.1159C223.908 31.3069 223.239 31.4661 222.539 31.6253C220.406 32.1346 218.178 32.2301 216.013 31.8481C213.848 31.4342 212.384 30.1927 211.811 28.0281C211.652 27.3914 211.524 26.7547 211.461 26.0862C211.62 26.0862 211.779 26.0862 211.906 26.1499C214.007 26.5319 216.14 26.691 218.273 26.5319ZM211.62 21.4385C211.843 20.197 212.129 18.9873 212.893 17.9686C214.071 16.4088 215.695 15.9631 217.541 16.1541C217.7 16.1541 217.827 16.2178 217.987 16.2178C220.215 16.568 220.756 18.3506 220.342 20.0697C220.024 21.343 218.973 21.8205 217.796 22.0433C217.159 22.1707 216.49 22.2343 215.822 22.2025C214.517 22.1707 213.243 22.0752 211.97 21.8842C211.684 21.8523 211.556 21.725 211.62 21.4385Z" fill="white"/>
</g>
<defs>
<clipPath id="clip0_71_13698">
<rect width="255" height="78.438" fill="white" transform="translate(0 0.301025)"/>
</clipPath>
</defs>
</svg>
