<svg width="239" height="60" viewBox="0 0 239 60" fill="none" xmlns="http://www.w3.org/2000/svg">
<rect width="239" height="60" fill="#888888"/>
<g id="Product Page 1" clip-path="url(#clip0_1_5)">
<rect width="1440" height="2971" transform="translate(-1032 -2143)" fill="#07062E"/>
<g id="Frame 23">
<g id="Ellipse 3" filter="url(#filter0_f_1_5)">
<circle cx="426" cy="-380" r="98" fill="url(#paint0_linear_1_5)"/>
</g>
</g>
<g id="Frame 43">
<g id="Frame 42">
<g id="Frame 41">
<g id="Frame 33" filter="url(#filter1_b_1_5)">
<rect x="-22" y="-20" width="280" height="100" rx="8" fill="white" fill-opacity="0.08"/>
<g id="lamborghini-logo-1 1">
<path id="Vector" d="M50.8961 2.19441C45.0399 2.14202 39.5091 5.10094 39.5091 5.10094C39.5091 5.10094 33.937 8.47504 31.9016 13.5308C31.7964 14.0218 20.7574 35.4273 20.7574 35.4273C6.76472 31.3819 -0.000332937 39.579 0.212893 42.7428C3.59343 51.2217 20.1243 45.1901 21.7748 43.227C22.6884 42.737 23.2771 43.3238 23.2771 43.3238C23.2771 43.3238 27.3255 46.0186 27.7831 46.2307C28.2402 46.4428 30.5452 46.1339 30.5452 46.1339C32.3378 45.9976 35.5362 42.4855 35.9236 42.4519C36.5214 42.4537 37.2424 46.3427 39.7031 46.2791C42.6558 46.8496 45.8567 43.5178 45.8567 43.5178C46.2781 42.9216 46.4382 43.3722 46.4382 43.3722C46.3702 47.0267 49.3388 46.3821 50.2174 46.2791C53.1346 45.0921 60.2798 38.0538 59.4725 40.1268C59.1917 40.6883 57.0012 44.7771 57.0012 44.7771C56.7558 45.8665 57.5343 45.7946 57.5343 45.7946L62.6701 45.7461C63.5483 45.2211 68.042 35.5462 67.5158 36.8809C69.1352 33.9506 72.7973 32.9085 72.7973 32.9085C73.1489 32.8037 72.991 33.2958 72.991 33.2958L66.9827 45.2132C66.8779 45.5286 67.467 45.843 67.467 45.843L72.7001 45.7461C73.4034 45.6782 77.7879 36.6869 77.7879 36.6869C78.9812 34.4055 83.215 33.1021 83.215 33.1021C83.9877 32.9634 83.4572 33.7319 83.4572 33.7319L79.3386 42.3551C78.7127 46.2701 82.0029 46.4995 83.4087 46.3275C84.8146 46.1208 87.1008 45.3292 91.5974 41.9674C92.5117 41.2678 92.7119 41.9717 92.7119 42.113C92.7506 46.9273 98.0419 46.3759 98.0419 46.3759C99.6237 46.7669 106.045 46.6155 111.415 35.9118C109.452 43.1807 113.455 45.1601 113.596 45.4072C113.737 45.6529 115.889 46.4045 116.697 46.2307C124.887 46.9566 128.326 34.2165 128.326 34.2165C130.169 32.834 130.637 32.4373 131.379 32.0362C133.207 32.2162 133.698 32.2678 134.577 32.3755C135.279 32.6238 134.642 33.2796 134.431 33.4895C126.07 40.0035 129.74 45.0267 130.022 44.9227C133.681 49.8877 141.276 41.2328 142.717 41.0955C144.55 48.4109 150.126 45.2262 150.373 45.2616C149.881 46.7011 148.451 50.261 147.223 52.5767C144.659 56.19 140.633 52.1409 140.633 52.1409L139.616 52.0925C139.124 52.7234 139.422 53.449 139.422 53.449C140.477 55.1389 141.828 57.4774 146.012 58.0512C150.23 58.2387 152.65 53.5942 152.65 53.5942C152.65 53.5942 158.563 42.6857 158.949 41.386C160.741 39.7745 163.85 37.4475 166.169 35.7666C167.679 35.4548 162.387 44.0815 162.002 45.31C161.897 46.0132 162.147 46.037 162.147 46.037C162.147 46.037 166.171 46.2368 166.944 46.1339C167.717 46.0305 171.472 37.1107 172.807 35.4277C173.966 33.4978 177.701 31.6973 177.701 31.6973C178.509 31.5239 178.234 32.4724 178.234 32.4724L173.292 42.4523C172.099 46.63 175.456 46.6516 176.053 46.6184C177.67 46.5165 183.709 43.0333 183.709 43.0333C184.552 42.4028 184.533 43.421 184.533 43.421C184.463 44.7565 185.906 46.9443 187.101 46.6665C191.389 47.0646 197.875 39.9421 198.051 40.6109C198.087 40.7519 195.629 45.6009 195.629 45.6009C195.735 45.9875 196.162 46.1823 196.162 46.1823C196.162 46.1823 200.314 46.2278 201.298 46.2307C202.282 46.2336 206.759 35.5379 207.742 34.9428C209.745 32.8752 211.936 32.679 212.006 32.7144C212.745 32.6819 207.828 40.5325 207.549 42.1126C206.462 46.6437 209.681 46.5696 209.681 46.5696C212.247 46.9638 218.539 42.501 218.644 42.8877C219.382 42.1524 219.468 43.0333 219.468 43.0333V43.3722C219.893 47.0289 222.037 46.618 222.037 46.618C224.497 47.2576 234.102 39.2061 234.102 39.2061L232.648 37.6076L226.64 41.9674C226.148 42.2127 225.864 41.6769 225.864 41.6769L232.6 28.6936C232.915 28.3785 232.454 28.0154 232.454 28.0154H226.398C225.976 28.4706 225.719 28.7904 225.719 28.7904L220.244 39.4485L214.236 42.4035C213.603 42.5769 213.751 41.9193 213.751 41.9193C213.751 41.9193 218.757 32.0977 219.178 30.7282C219.459 30.0966 219.323 29.0813 219.323 29.0813C217.668 25.2454 210.983 30.2112 210.068 30.244C210.033 30.2791 210.892 28.4999 210.892 28.4999C211.138 27.9731 210.65 27.9669 210.65 27.9669L205.029 27.9185C205.029 27.9185 205.046 27.5193 204.835 27.8701C204.625 28.221 201.008 34.9915 201.008 34.9915L191.947 41.8221C191.173 41.9612 191.365 41.4348 191.365 41.4348L198.003 28.5967L198.052 28.0638L191.656 27.9185L186.374 38.0917C186.093 38.4075 180.56 41.5316 180.56 41.5316C179.716 41.7759 179.688 41.0471 179.688 41.0471L184.582 31.552C185.69 27.8477 181.642 26.7587 179.639 27.4824C178.285 27.9702 177.023 28.4031 177.023 28.4031C177.023 28.4031 176.623 28.5071 176.974 28.0154C177.571 27.1735 183.758 14.9352 183.758 14.9352C183.899 14.5837 183.564 14.3539 183.564 14.3539L177.944 14.3054C177.486 14.5143 177.41 14.8384 177.41 14.8384L169.415 30.0016L162.825 34.9431C162.404 35.2232 162.389 34.7491 162.389 34.7491L165.684 28.4999V27.8697L159.773 27.8213L158.803 28.5964C158.135 27.1886 154.742 27.2053 154.636 27.2399C147.536 27.0087 143.54 37.0742 143.54 37.0742C139.59 40.4986 137.764 41.5641 136.466 41.7733C135.386 41.834 135.061 40.9495 135.061 40.9495C133.557 36.3418 143.007 31.9874 143.007 31.9874C143.324 31.8122 144.686 27.7248 144.51 27.7245C144.334 27.7241 132.889 27.7111 132.784 27.6761C132.15 27.4286 129.094 30.3047 128.18 30.9703C125.504 23.1259 115.132 29.0589 113.693 32.5688C113.075 32.7336 112.797 32.6187 112.481 32.6172C112.585 29.947 112.231 28.282 110.543 27.4336C109.629 26.9393 105.892 27.4336 105.892 27.4336L112.239 14.7896C112.555 14.4037 111.948 14.0146 111.948 14.0146H106.231C105.985 14.1548 105.698 14.4988 105.698 14.4988C105.698 14.4988 94.8944 35.419 94.2623 36.5416C93.6306 37.6643 85.7344 41.8705 85.7344 41.8705C85.8037 41.098 90.8897 32.2563 91.0647 30.5345C91.2717 26.0721 86.1706 27.4824 86.1706 27.4824C86.1706 27.4824 83.2819 29.3996 80.6469 30.7282C80.0806 25.8412 75.8013 27.5308 75.8013 27.5308L70.956 30.6798L71.828 28.4031L72.0221 27.5308L66.2072 27.3856C65.5404 27.8759 64.3662 30.5345 64.3662 30.5345L62.5249 33.9256L54.2394 40.1752C53.4313 40.6294 53.8516 39.5454 53.8516 39.5454C53.8516 39.5454 59.4457 28.5754 59.569 28.4995C60.0258 28.2195 59.6662 27.5312 59.6662 27.5312L54.0453 27.4824C54.0453 27.4824 53.0934 29.0993 52.8827 29.275C50.2083 25.5063 41.3833 27.0358 36.6504 38.1889C36.0454 38.9344 35.5774 39.4561 35.2453 39.5938C29.6959 46.0797 26.5232 39.6422 26.5232 39.6422L36.4567 20.7002C36.4567 20.7002 40.976 10.591 43.8217 7.71697C51.024 2.85239 53.0764 7.42646 53.0764 7.42646C53.6987 8.86816 55.5964 14.0727 45.8083 16.5825C44.5242 16.7094 44.9358 17.3088 44.9358 17.3088C47.7848 19.742 51.2835 19.4891 51.2835 19.4891C54.7287 20.1662 64.0644 15.0299 60.6835 6.79666C58.0453 3.34958 54.4096 2.22585 50.8961 2.19441ZM198.73 15.0324C193.598 15.2286 193.298 22.1145 198.536 22.8317C203.633 22.9871 204.601 15.2601 198.73 15.0321V15.0324ZM233.665 15.0324C228.112 15.052 228.526 22.8874 233.762 22.8317C239 22.4252 238.552 15.2214 233.665 15.0321V15.0324ZM50.3146 29.7107C51.9571 29.7483 51.6698 31.7161 51.3807 32.0846C51.5567 32.6823 48.5217 37.8009 48.5217 37.8009C45.0099 42.1842 43.337 41.3856 43.337 41.3856C43.337 41.3856 42.1336 41.2187 43.0464 38.8668C44.0295 37.2177 45.9384 32.9265 47.9402 30.437C48.9944 29.8954 49.7667 29.6981 50.3146 29.7107ZM105.407 30.1949C107.13 30.411 106.279 31.9874 106.279 31.9874L101.53 41.3372C100.021 43.1962 98.6233 42.5484 98.6233 42.5484C97.8499 41.9833 99.1564 39.8355 99.1564 39.8355L103.614 31.1156C104.492 30.2039 105.407 30.1949 105.407 30.1949ZM154.83 30.2437C156.175 30.0052 156.72 31.1156 156.72 31.1156C156.72 31.1156 156.798 31.2941 156.623 32.2783C156.238 33.7887 152.068 40.9983 152.068 40.9983C150.313 42.7507 148.773 42.4031 148.773 42.4031C147.895 42.1545 148.24 40.853 148.24 40.853C148.24 40.853 151.617 33.931 153.231 31.0187C153.864 30.5548 154.382 30.3228 154.83 30.2437ZM122.511 30.2921C123.254 30.1667 123.959 30.4728 123.819 32.0359C122.943 33.896 119.483 40.7294 118.78 41.6761C118.64 42.4848 115.107 43.8022 116.018 40.853C116.018 40.853 120.975 31.5853 121.009 31.164C121.027 30.953 121.769 30.4171 122.511 30.2921ZM10.9212 37.8984C13.8182 37.8291 16.4448 38.77 16.4448 38.77C16.4448 38.77 15.7672 41.0283 9.37042 42.0642C6.34767 41.881 4.76835 41.8944 4.76726 40.805C6.24214 38.6106 8.66786 37.9523 10.9212 37.8984Z" fill="white"/>
</g>
<rect x="-21.5" y="-19.5" width="279" height="99" rx="7.5" stroke="white" stroke-opacity="0.4"/>
</g>
</g>
</g>
</g>
</g>
<defs>
<filter id="filter0_f_1_5" x="-5" y="-811" width="862" height="862" filterUnits="userSpaceOnUse" color-interpolation-filters="sRGB">
<feFlood flood-opacity="0" result="BackgroundImageFix"/>
<feBlend mode="normal" in="SourceGraphic" in2="BackgroundImageFix" result="shape"/>
<feGaussianBlur stdDeviation="166.5" result="effect1_foregroundBlur_1_5"/>
</filter>
<filter id="filter1_b_1_5" x="-62" y="-60" width="360" height="180" filterUnits="userSpaceOnUse" color-interpolation-filters="sRGB">
<feFlood flood-opacity="0" result="BackgroundImageFix"/>
<feGaussianBlur in="BackgroundImageFix" stdDeviation="20"/>
<feComposite in2="SourceAlpha" operator="in" result="effect1_backgroundBlur_1_5"/>
<feBlend mode="normal" in="SourceGraphic" in2="effect1_backgroundBlur_1_5" result="shape"/>
</filter>
<linearGradient id="paint0_linear_1_5" x1="328" y1="-478" x2="530.428" y2="-470.545" gradientUnits="userSpaceOnUse">
<stop stop-color="#E10DE4"/>
<stop offset="1" stop-color="#02E1FF"/>
</linearGradient>
<clipPath id="clip0_1_5">
<rect width="1440" height="2971" fill="white" transform="translate(-1032 -2143)"/>
</clipPath>
</defs>
</svg>
