<svg width="269" height="54" viewBox="0 0 269 54" fill="none" xmlns="http://www.w3.org/2000/svg">
<path d="M257.536 6.75881C257.536 3.70483 259.989 1.20157 262.993 1.20157C264.445 1.20157 265.796 1.80235 266.848 2.80366C267.899 3.85503 268.45 5.25685 268.45 6.70875C268.45 8.16064 267.899 9.56247 266.848 10.6138C265.796 11.6652 264.445 12.266 262.993 12.266C259.989 12.266 257.536 9.8128 257.536 6.75881ZM257.085 6.75881C257.085 10.0631 259.738 12.7666 263.043 12.7666C264.645 12.7666 266.097 12.1659 267.198 11.0144C268.3 9.86286 268.95 8.3609 268.95 6.75881C268.95 5.15672 268.35 3.65477 267.198 2.50326C266.047 1.35176 264.595 0.750979 263.043 0.750979C259.738 0.750979 257.085 3.4545 257.085 6.75881ZM260.79 10.3134H261.641V7.50979H263.543C263.844 7.50979 264.094 7.50979 264.294 7.60992C264.545 7.76012 264.695 8.06051 264.745 8.46103L264.845 9.56247V10.0631C264.895 10.1633 264.895 10.2133 264.945 10.2634H265.997V10.1132C265.846 10.0631 265.796 9.91293 265.746 9.71267C265.696 9.61253 265.696 9.41227 265.696 9.16195L265.646 8.31084C265.646 7.91032 265.546 7.65999 265.446 7.50979C265.296 7.3596 265.095 7.2094 264.845 7.10927C265.146 6.95907 265.346 6.75881 265.496 6.50849C265.646 6.25816 265.696 5.95777 265.696 5.55725C265.696 4.80627 265.396 4.30561 264.845 4.00522C264.545 3.85503 264.144 3.80496 263.694 3.80496H260.84L260.79 10.3134ZM261.591 6.75881V4.50588H263.593C263.894 4.50588 264.144 4.55594 264.294 4.65607C264.595 4.80627 264.745 5.15672 264.745 5.60731C264.745 6.0579 264.645 6.35829 264.395 6.50849C264.194 6.65868 263.894 6.75881 263.493 6.75881H261.591ZM24.3815 15.0196L0.0498047 53.2695H16.6715L40.102 16.7218L24.3815 15.0196ZM124.562 14.1685V0H77.2505C70.7921 0.400522 67.9884 3.50457 65.8857 5.70744C63.6327 8.06051 62.3811 13.017 62.3811 13.017V0.100131H37.1982C35.2958 0.100131 33.4934 0.901175 32.1417 2.80366C30.7398 4.65607 24.9823 14.1685 24.9823 14.1685H124.562ZM253.23 14.1685V0H202.614C196.206 0.400522 193.352 3.50457 191.249 5.70744C188.996 8.06051 187.745 13.017 187.745 13.017V14.1685H253.23ZM141.184 0.0500653H127.015V14.1685H141.184V0.0500653ZM187.594 0.0500653H173.476V14.1685H187.594V0.0500653ZM187.594 19.2751L173.676 18.424V34.7954C173.676 34.7954 173.626 39.5015 169.07 39.5015H145.239C145.239 39.5015 141.184 39.1511 141.184 34.8454V16.2212L127.166 15.2198V40.3026C129.419 52.3182 140.283 53.2695 140.283 53.2695C140.283 53.2695 141.384 53.3195 141.584 53.3696H173.876C173.876 53.3696 187.694 52.2682 187.694 38.9508L187.594 19.2751ZM47.9623 53.2695H114.149C125.664 50.9665 126.865 40.4528 126.865 40.4528C127.416 37.3487 127.116 34.7954 127.116 34.7954C126.765 32.6926 122.76 23.3805 114.149 22.5794C108.992 22.0788 63.082 18.424 63.082 18.424C63.9832 23.03 66.0359 25.3831 67.4377 26.6848C70.6419 29.7388 75.6985 30.64 75.6985 30.64L111.095 33.5938C112.196 33.6439 114.249 33.9443 114.199 36.6478C114.199 36.9982 113.898 39.3513 111.295 39.3513H61.7803V18.3239L48.0123 17.3226C47.9623 17.3226 47.9623 53.2695 47.9623 53.2695ZM187.694 53.3696H238.361C251.077 52.6186 252.88 40.5529 252.88 40.5529C253.33 37.3988 252.98 34.7954 252.98 34.7954C252.629 31.9417 248.574 23.3304 239.913 22.4793C234.806 21.9787 188.596 19.2751 188.596 19.2751C189.947 24.0313 191.8 25.4832 193.202 26.7849C196.406 29.889 201.162 30.5899 201.162 30.5899C202.364 30.69 236.909 33.5938 236.909 33.5938C238.01 33.6439 240.263 33.744 240.263 36.4475C240.263 37.2486 239.863 38.0997 239.362 38.5503C239.362 38.5503 238.16 39.2011 237.009 39.2011H187.845L187.694 53.3696Z" fill="white"/>
</svg>
