<svg width="339" height="348" viewBox="0 0 339 348" fill="none" xmlns="http://www.w3.org/2000/svg">
<g style="mix-blend-mode:multiply">
<path d="M258.521 334.451V17.018L272.57 0L288.964 346.806L258.521 334.451Z" fill="url(#paint0_linear_116_11749)"/>
<path d="M272.249 0L288.481 346.806H299.11L278.338 0H272.249Z" fill="url(#paint1_linear_116_11749)"/>
<path d="M273.54 121.152L264.097 137.372L266.824 272.794L270.561 275.988L273.609 342.556L277.981 343.904L273.586 275.61L268.016 269.63L265.002 138.19L273.678 123.332L273.54 121.152Z" fill="url(#paint2_linear_116_11749)"/>
<path d="M0.877621 263.289C96.7268 234.603 217.304 201.626 347.211 167.039L346.383 178.39C220.981 206.809 103.704 235.135 0.877621 263.289Z" fill="#A2A2FF"/>
<path d="M2.12788 263.381L6.37442 263.69C115.852 244.417 228.657 229.404 344.137 217.829L346.438 178.354C213.06 209.036 84.4434 239.121 2.12788 263.381Z" fill="url(#paint3_linear_116_11749)"/>
<path d="M138.542 336.993V53.9645L146.278 38.7993L161.821 348L138.542 336.993Z" fill="url(#paint4_linear_116_11749)"/>
<path d="M147.832 128.365L142.382 137.372L145.11 272.794L148.846 275.988L151.872 343.911L154.989 345.258L151.872 275.609L146.302 269.63L143.288 138.189L147.97 130.537L147.832 128.365Z" fill="url(#paint5_linear_116_11749)"/>
<path d="M146.301 38.7993L161.458 348H171.968L152.321 38.7993H146.301Z" fill="url(#paint6_linear_116_11749)"/>
</g>
<defs>
<linearGradient id="paint0_linear_116_11749" x1="301.712" y1="-539.914" x2="236.888" y2="-539.135" gradientUnits="userSpaceOnUse">
<stop stop-color="#FE00DD"/>
<stop offset="1" stop-color="#00CCE3"/>
</linearGradient>
<linearGradient id="paint1_linear_116_11749" x1="310.358" y1="-539.914" x2="253.159" y2="-539.307" gradientUnits="userSpaceOnUse">
<stop stop-color="#FE00DD"/>
<stop offset="1" stop-color="#00CCE3"/>
</linearGradient>
<linearGradient id="paint2_linear_116_11749" x1="244.694" y1="63.9469" x2="320.048" y2="315.078" gradientUnits="userSpaceOnUse">
<stop stop-color="#BAE8D5"/>
<stop offset="0.16" stop-color="#43E8E1"/>
<stop offset="0.59" stop-color="#0B5879"/>
<stop offset="0.78" stop-color="#095071"/>
<stop offset="1" stop-color="#044061"/>
</linearGradient>
<linearGradient id="paint3_linear_116_11749" x1="297.321" y1="202.652" x2="26.9197" y2="258.165" gradientUnits="userSpaceOnUse">
<stop stop-color="#DEDEFF"/>
<stop offset="1" stop-color="#7676FF" stop-opacity="0.77"/>
</linearGradient>
<linearGradient id="paint4_linear_116_11749" x1="171.57" y1="-442.57" x2="121.997" y2="-442.059" gradientUnits="userSpaceOnUse">
<stop stop-color="#FE00DD"/>
<stop offset="1" stop-color="#00CCE3"/>
</linearGradient>
<linearGradient id="paint5_linear_116_11749" x1="126.343" y1="99.4596" x2="201.698" y2="350.583" gradientUnits="userSpaceOnUse">
<stop stop-color="#BAE8D5"/>
<stop offset="0.16" stop-color="#43E8E1"/>
<stop offset="0.59" stop-color="#0B5879"/>
<stop offset="0.78" stop-color="#095071"/>
<stop offset="1" stop-color="#044061"/>
</linearGradient>
<linearGradient id="paint6_linear_116_11749" x1="182.716" y1="-442.57" x2="128.06" y2="-441.948" gradientUnits="userSpaceOnUse">
<stop stop-color="#FE00DD"/>
<stop offset="1" stop-color="#00CCE3"/>
</linearGradient>
</defs>
</svg>
