<svg width="33" height="32" viewBox="0 0 33 32" fill="none" xmlns="http://www.w3.org/2000/svg">
<circle cx="16" cy="16" r="15.5" transform="matrix(-1 0 0 1 32.5 0)" stroke="white"/>
<g clip-path="url(#clip0_166_3516)">
<path d="M20.543 16.3706C20.9336 15.98 20.9336 15.3456 20.543 14.955L14.543 8.95497C14.1523 8.56434 13.518 8.56434 13.1273 8.95497C12.7367 9.34559 12.7367 9.97997 13.1273 10.3706L18.4211 15.6643L13.1305 20.9581C12.7398 21.3487 12.7398 21.9831 13.1305 22.3737C13.5211 22.7643 14.1555 22.7643 14.5461 22.3737L20.5461 16.3737L20.543 16.3706Z" fill="white"/>
</g>
<defs>
<clipPath id="clip0_166_3516">
<rect width="13.3333" height="13.3333" fill="white" transform="matrix(0 -1 1 0 9.83398 22.6667)"/>
</clipPath>
</defs>
</svg>
